<?xml version="1.0" encoding="iso-8859-1"?>
<!-- Generator: Adobe Illustrator 18.0.0, SVG Export Plug-In . SVG Version: 6.00 Build 0)  -->
<!DOCTYPE svg PUBLIC "-//W3C//DTD SVG 1.1//EN" "http://www.w3.org/Graphics/SVG/1.1/DTD/svg11.dtd">
<svg version="1.1" id="Capa_1" xmlns="http://www.w3.org/2000/svg" xmlns:xlink="http://www.w3.org/1999/xlink" x="0px" y="0px"
	 viewBox="0 0 297 297" style="enable-background:new 0 0 297 297;" xml:space="preserve">
<g>
	<path d="M92.574,206.426c0,9.758,7.939,17.697,17.698,17.697s17.697-7.939,17.697-17.697c0-9.759-7.938-17.697-17.697-17.697
		S92.574,196.667,92.574,206.426z M112.014,206.426c0,0.96-0.781,1.741-1.741,1.741c-0.961,0-1.742-0.781-1.742-1.741
		c0-0.961,0.781-1.742,1.742-1.742C111.232,204.684,112.014,205.465,112.014,206.426z"/>
	<path d="M296.484,135.412l-37.61-111.111c-1.721-5.084-7.236-7.814-12.321-6.09c-5.085,1.721-7.812,7.237-6.09,12.322l2.678,7.909
		L81.982,79.057c-2.121-16.275-13.898-36.42-41.429-36.42c-5.368,0-9.72,4.353-9.72,9.72c0,5.367,4.351,9.72,9.72,9.72
		c9.378,0,15.457,3.24,19.131,10.196c2.535,4.799,3.078,9.872,3.192,11.599l-11.793,2.972c-0.241,0.063-0.481,0.133-0.718,0.211
		C11.753,100.017-9.116,141.978,3.847,180.59c6.79,20.225,21.704,35.984,40.382,44.168l-3.151,5.458
		c-7.007,12.135-7.868,24.561-2.365,34.093c5.503,9.53,16.695,14.997,30.708,14.997l81.056-0.001
		c14.012,0,25.205-5.467,30.707-14.997c5.503-9.531,4.642-21.958-2.365-34.093l-20.039-34.708l117.05-60.491l2.244,6.629
		c1.372,4.052,5.152,6.605,9.205,6.605c1.032,0,2.084-0.166,3.117-0.516C295.48,146.013,298.206,140.497,296.484,135.412z
		 M164.349,254.588c-1.936,3.354-6.993,5.277-13.873,5.277l-81.056,0.001c-6.881,0-11.938-1.924-13.873-5.277
		c-1.938-3.355-1.075-8.696,2.365-14.654l40.528-70.194c3.439-5.958,7.634-9.376,11.508-9.376c3.873,0,8.067,3.418,11.507,9.376
		l40.527,70.193C165.423,245.893,166.285,251.234,164.349,254.588z M138.29,160.021c-7.006-12.135-17.337-19.095-28.342-19.095
		c-11.006,0-21.337,6.96-28.343,19.095l-27.572,47.756c-14.694-5.751-26.515-17.754-31.758-33.373
		c-9.514-28.339,5.701-59.123,33.937-68.806l102.816-25.911l27.154,79.776l-37.134,19.192L138.29,160.021z M203.646,150.439
		L177.94,74.921l71.3-17.969l20.003,59.585L203.646,150.439z"/>
</g>
<g>
</g>
<g>
</g>
<g>
</g>
<g>
</g>
<g>
</g>
<g>
</g>
<g>
</g>
<g>
</g>
<g>
</g>
<g>
</g>
<g>
</g>
<g>
</g>
<g>
</g>
<g>
</g>
<g>
</g>
</svg>
