<svg id="Capa_1" data-name="Capa 1" xmlns="http://www.w3.org/2000/svg" viewBox="0 0 297 297"><defs><style>.cls-1{fill:#20201f;}</style></defs><path class="cls-1" d="M92.57,206.43a17.7,17.7,0,1,0,17.7-17.7h0A17.72,17.72,0,0,0,92.57,206.43Zm19.44,0a1.74,1.74,0,1,1-1.74-1.75,1.74,1.74,0,0,1,1.74,1.75h0Z"/><path class="cls-1" d="M296.48,135.41,258.87,24.3a9.72,9.72,0,0,0-18.41,6.23l2.68,7.91L82,79.06C79.88,62.78,68.1,42.64,40.57,42.64a9.72,9.72,0,0,0,0,19.44C50,62.08,56,65.32,59.7,72.27a30.72,30.72,0,0,1,3.2,11.6l-11.8,3-.71.22a73.88,73.88,0,0,0-6.14,137.7l-3.15,5.46c-7,12.13-7.87,24.56-2.37,34.09s16.7,15,30.71,15H150.5c14,0,25.2-5.46,30.7-15s4.65-22-2.36-34.1l-20-34.7,117-60.49,2.24,6.62a9.72,9.72,0,1,0,18.54-5.84c0-.13-.08-.26-.13-.39ZM164.35,254.59c-1.94,3.35-7,5.27-13.87,5.27H69.42c-6.88,0-11.94-1.93-13.87-5.28s-1.08-8.7,2.36-14.66l40.53-70.19c3.44-6,7.63-9.38,11.51-9.38s8.07,3.42,11.51,9.38L162,239.93C165.42,245.89,166.29,251.23,164.35,254.59ZM138.29,160c-7-12.13-17.34-19.09-28.34-19.09s-21.34,7-28.35,19.09L54,207.78A54.44,54.44,0,0,1,56.21,105.6L159,79.69l27.15,79.77L149,178.65Zm65.36-9.58-25.71-75.5,71.3-18,20,59.59Z"/></svg>