<svg id="Calque_1" data-name="Calque 1" xmlns="http://www.w3.org/2000/svg" viewBox="0 0 200 200"><defs><style>.cls-1{fill:#bbb9b3;}</style></defs><path class="cls-1" d="M121.77,39.63A23.65,23.65,0,0,1,138,13.31c13.27-3.79,25,2.53,29.57,14.48a22.84,22.84,0,0,1-1.07,18.82c-2.95,6.07-7.86,9.85-14.17,12.28q20,22,19.39,51.4a71.38,71.38,0,0,1-54.27,67.16c-17.85,4.4-35,2.09-51.21-6.68A71.19,71.19,0,0,1,30.85,91.55c4.75-20,16.24-35.46,34.23-45.72S102,34.07,121.77,39.63ZM100.43,49.69A57.67,57.67,0,0,0,42,106.59v1c-.13,32.36,24.1,56.78,54.64,58.64,36.57,2.24,61.66-27.23,62.1-57.07C159.22,76.12,132.68,49.32,100.43,49.69Zm60.23-13.48c-.62-2.11-1.14-4.26-1.88-6.33-2.61-7.39-12-10.73-19-7.9a14.9,14.9,0,0,0-9.15,17.19c.51,2.4,1.3,4.81,4,6.16,2.88,1.47,5.46,3.52,8.26,5.16a5.4,5.4,0,0,0,3,.63C153.66,50.53,160.39,44.12,160.66,36.21Z"/><path class="cls-1" d="M65.3,86.24c-1.38-2.44-2.61-4.39-3.56-6.46A2.84,2.84,0,0,1,62,77.34,47.7,47.7,0,0,1,91.12,59.62a46.64,46.64,0,0,1,28.67,3.19c3.21,1.46,3.59,2.27,2.89,5.74-.23,1.17-.33,2.37-.57,4.24,2.37-1.35,4.21-2.5,6.15-3.44a2.62,2.62,0,0,1,2.19,0c5.13,3.42,8.86,8.19,12.08,13.33a44.23,44.23,0,0,1,6,16c.86,4.83,1.6,9.7.48,14.58-1.06,4.62-2.26,9.21-3.38,13.82-.58,2.36-1.75,3.8-4.5,3.39-1.8-.27-3.64-.22-5.51-.32l4.16,7.29c-6.49,8.16-14.37,14.16-24.42,17.37a48.12,48.12,0,0,1-36.73-2.59c-.48-.23-.82-1.29-.81-2,.06-2.16.3-4.31.51-7-2.38,1.42-4.28,2.63-6.28,3.66a2.3,2.3,0,0,1-2-.11,48.59,48.59,0,0,1-16.93-25,46.45,46.45,0,0,1-.53-25.32c.46-1.75,1.06-3.47,1.63-5.2,2-5.89,3.55-6.77,9.68-5.37Zm17.56-12.9c.42,3.5.77,6.39,1.11,9.28.48,4.12,1,8.24,1.41,12.38.26,3,.64,5.75-.53,8.89a15,15,0,0,0,7.62,18.6c3.26,1.55,5.42,3.93,7.59,6.58,4.33,5.3,8.8,10.49,13.36,15.91-.27-5.38-.6-10.49-.76-15.6a56.93,56.93,0,0,1,1.9-18c2.21-7.56-3.24-15.26-10.23-17.51A5.67,5.67,0,0,1,102,92.75c-4-4-7.85-8-11.79-12.07C88,78.37,85.66,76.11,82.86,73.34Z"/><path class="cls-1" d="M99.46,116.44a6.91,6.91,0,0,1-6.76-6.7c.09-4.67,2.56-7.15,7-7.48,3.47-.25,7.36,3.53,7.06,7C106.38,113.16,103.86,116.23,99.46,116.44Z"/></svg>