<svg id="Calque_1" data-name="Calque 1" xmlns="http://www.w3.org/2000/svg" viewBox="0 0 512 512"><defs><style>.cls-1{fill:#bbb9b3;}</style></defs><path class="cls-1" d="M501.32,397.23a45,45,0,0,0-74.4-16.14l-64.41-30,64.39-30a45,45,0,1,0,49.85-72.89,45,45,0,1,0-87.89-8.69L351,257.11V230.75a135,135,0,1,0-190,0v26.36L123.2,239.46a45,45,0,1,0-87.88,8.66A45,45,0,1,0,85.14,321l64.41,30-64.41,30A45,45,0,1,0,35.33,454a45,45,0,1,0,87.87,8.68l132.83-62,132.84,62A45,45,0,1,0,476.74,454a45,45,0,0,0,24.58-56.77ZM99.23,440.73A15,15,0,0,0,92,460.66,15,15,0,1,1,72,453.4a15,15,0,1,0-12.68-27.19,15,15,0,1,1,7.26-19.93,15,15,0,0,0,19.93,7.26L185,367.61l35.5,16.55Zm313.6-179.34a15,15,0,0,0,7.26-19.93,15,15,0,0,1,7.25-19.94A15,15,0,1,1,440,248.71,15,15,0,0,0,452.7,275.9a15,15,0,1,1,12.68,27.19,15,15,0,0,1-19.93-7.25,15,15,0,0,0-19.94-7.26L327,334.51l-11.68-5.45L291.53,318ZM231.58,290h48.9L256,301.41ZM151,135a105,105,0,1,1,175,78.11,15,15,0,0,0-5,11.17V260H301V245a15,15,0,1,0-30,0v15H241V245a15,15,0,0,0-30,0v15H191V224.28a15,15,0,0,0-5-11.17A105,105,0,0,1,151,135Zm321.6,284a15,15,0,0,1-19.93,7.25A15,15,0,0,0,440,453.41a15,15,0,1,1-12.68,27.18,15,15,0,0,1-7.25-19.93,15,15,0,0,0-7.26-19.93L86.55,288.58a14.85,14.85,0,0,0-6.32-1.41,15,15,0,0,0-13.61,8.67,15,15,0,1,1-7.26-19.94,15,15,0,1,0,12.69-27.19A15,15,0,1,1,92,241.46a15,15,0,0,0,7.25,19.93l150.46,70.16,71,33.1h0l104.82,48.88a15,15,0,0,0,19.94-7.26A15,15,0,1,1,472.63,419Z"/><path class="cls-1" d="M251,140c0-24.81-21-38.74-45-45-15.68-4.08-43.32,19.44-45,45-1.63,24.76,20.19,45,45,45A45,45,0,0,0,251,140Zm-60,0a15,15,0,1,1,15,15A15,15,0,0,1,191,140Z"/><path class="cls-1" d="M307.43,194.61a15,15,0,0,0,21.21-21.21L309.25,154H333a15,15,0,0,0,10.61-25.61l-45-45a15,15,0,1,0-21.21,21.22L296.82,124H273a15,15,0,0,0-10.6,25.61Z"/></svg>