<svg id="Capa_1" data-name="Capa 1" xmlns="http://www.w3.org/2000/svg" viewBox="0 0 297 297"><defs><style>.cls-1{fill:#bbb9b3;}</style></defs><path class="cls-1" d="M241.42,297a9.83,9.83,0,0,0,8.32-4.6c24.62-39.21,38.18-90.73,38.18-145.07,0-53.09-13-103.74-36.65-142.61A9.84,9.84,0,0,0,242.88,0H54.12a9.84,9.84,0,0,0-8.39,4.72C22.1,43.59,9.08,94.24,9.08,147.33c0,54.34,13.56,105.86,38.18,145.07a9.83,9.83,0,0,0,8.32,4.6ZM82.85,219.68a461.49,461.49,0,0,1-5.53-72.35,462.91,462.91,0,0,1,5.18-70h132a462.91,462.91,0,0,1,5.18,70,461.49,461.49,0,0,1-5.53,72.35ZM28.72,147.33a290.35,290.35,0,0,1,8.39-70H62.65a485.17,485.17,0,0,0-5,70A482.6,482.6,0,0,0,63,219.68H37.7A289,289,0,0,1,28.72,147.33Zm205.63-70h25.54a290.35,290.35,0,0,1,8.39,70,289,289,0,0,1-9,72.35H234a484,484,0,0,0,5.31-72.35A485.17,485.17,0,0,0,234.35,77.32Zm19.79-19.64H231a338.28,338.28,0,0,0-9.69-38h16A217.26,217.26,0,0,1,254.14,57.68Zm-43.17,0H158.32v-38h42.29A304.53,304.53,0,0,1,211,57.68Zm-72.29-38v38H86a304.53,304.53,0,0,1,10.36-38Zm-78.94,0h16a338.28,338.28,0,0,0-9.69,38H42.86A217.26,217.26,0,0,1,59.74,19.64ZM43.65,239.32H66.47a331.18,331.18,0,0,0,10,38H61.1A213.93,213.93,0,0,1,43.65,239.32Zm42.87,0h52.16v38H97.22A298.1,298.1,0,0,1,86.52,239.32Zm71.8,38v-38h52.16a297.63,297.63,0,0,1-10.7,38Zm77.58,0H220.54a330.64,330.64,0,0,0,10-38h22.82A213.93,213.93,0,0,1,235.9,277.36Z"/><path class="cls-1" d="M186,163.1h-8.83l-14.24-14.39,14.66-14.81H186a9.82,9.82,0,0,0,0-19.64h-3.81v-3.88a9.83,9.83,0,0,0-9.81-9.83h0a9.82,9.82,0,0,0-9.82,9.81v10.81l-13.44,13.58L134.47,120v-9.61a9.82,9.82,0,1,0-19.64,0v3.9H111a9.82,9.82,0,1,0,0,19.63h9.59l14.66,14.81L121,163.1H111a9.82,9.82,0,0,0,0,19.64h3.8v3.88a9.83,9.83,0,0,0,9.81,9.83h0a9.82,9.82,0,0,0,9.82-9.81v-9.2l14.62-14.77,13.44,13.57v10.39a9.82,9.82,0,0,0,19.64,0v-3.9H186a9.82,9.82,0,0,0,0-19.63Z"/></svg>