<svg id="Capa_1" data-name="Capa 1" xmlns="http://www.w3.org/2000/svg" viewBox="0 0 448.48 448.48"><defs><style>.cls-1{fill:#20201f;}</style></defs><path class="cls-1" d="M259.82,118.59a28.08,28.08,0,1,0,28.07,28.09h0A28.11,28.11,0,0,0,259.82,118.59Zm0,41.15a13.08,13.08,0,1,1,13.07-13.09v0a13.09,13.09,0,0,1-13.07,13.07Z"/><path class="cls-1" d="M188.66,118.59a28.08,28.08,0,1,0,28.08,28.08A28.08,28.08,0,0,0,188.66,118.59Zm0,41.15a13.08,13.08,0,1,1,13.08-13.08h0a13.08,13.08,0,0,1-13.08,13.07Z"/><path class="cls-1" d="M441,52.92c-10,0-15.28,3.43-19.56,6.2-3.54,2.28-5.88,3.8-11.41,3.8s-7.87-1.52-11.42-3.8c-4.27-2.77-9.6-6.2-19.55-6.2s-15.27,3.43-19.55,6.2c-3.54,2.28-5.88,3.8-11.41,3.8s-7.87-1.52-11.42-3.8c-4.27-2.77-9.6-6.2-19.55-6.2a38.13,38.13,0,0,0-4,.2,101.5,101.5,0,0,0-177.79,0,38.13,38.13,0,0,0-4-.2c-10,0-15.27,3.43-19.55,6.2-3.54,2.28-5.88,3.8-11.41,3.8S92.51,61.4,89,59.12c-4.28-2.77-9.6-6.2-19.55-6.2s-15.27,3.43-19.55,6.2c-3.54,2.28-5.88,3.8-11.41,3.8s-7.87-1.52-11.41-3.8c-4.28-2.77-9.6-6.2-19.55-6.2a7.5,7.5,0,0,0,0,15c5.53,0,7.87,1.51,11.41,3.8,4.27,2.76,9.6,6.2,19.55,6.2S53.73,74.48,58,71.72c3.54-2.29,5.88-3.8,11.41-3.8s7.87,1.51,11.41,3.8c4.27,2.76,9.6,6.2,19.55,6.2s15.27-3.44,19.55-6.2c2.89-1.87,5-3.22,8.66-3.65a100.9,100.9,0,0,0-5.89,34.07c0,19.22,5.36,41.23,15.1,62a150.13,150.13,0,0,1,14.64,64.13v60.89c0,6.43-5,11.9-11.07,12.2a11.69,11.69,0,0,1-12.24-11.12c0-.17,0-.35,0-.53V266.32c0-13-10.37-23.86-23.12-24.1a23.57,23.57,0,0,0-24,23.12v23.44c0,32.2,25.74,59,57.38,59.75a58.32,58.32,0,0,0,42.49-16.73c1-.93,1.86-1.9,2.74-2.88V389.1a11.69,11.69,0,0,1-11.73,11.65h-.53c-6.1-.3-11.06-5.77-11.06-12.19V377.92a23.58,23.58,0,0,0-23.6-23.56h-.4c-12.76.23-23.14,11-23.14,24.1v10.6a58.86,58.86,0,0,0,58.79,58.81h1.43c21.21-.51,39.75-12.72,49.69-30.4a58.88,58.88,0,0,0,10.44,13.67,58.28,58.28,0,0,0,41,16.75h1.43c31.65-.75,57.4-27.56,57.4-59.75V377.93a23.56,23.56,0,0,0-23.56-23.56h-.44c-12.77.22-23.15,11-23.15,24.1v10.59a11.68,11.68,0,0,1-11.72,11.66h-.54c-6.1-.3-11.06-5.77-11.06-12.2v-60.1a58.29,58.29,0,0,0,42.39,20.08h1.44A58.87,58.87,0,0,0,366.5,289.7V266.32c0-13-10.38-23.86-23.12-24.1a23.59,23.59,0,0,0-24,23.16v23.77c0,6.43-5,11.9-11.07,12.2a11.67,11.67,0,0,1-12.29-11c0-.21,0-.41,0-.62V228.26a150.13,150.13,0,0,1,14.64-64.13c9.74-20.76,15.1-42.77,15.1-62a100.9,100.9,0,0,0-5.89-34.07c3.67.43,5.76,1.78,8.64,3.65,4.28,2.76,9.6,6.2,19.56,6.2s15.27-3.44,19.55-6.2c3.54-2.29,5.88-3.8,11.41-3.8s7.87,1.51,11.42,3.8c4.27,2.76,9.6,6.2,19.55,6.2s15.28-3.44,19.55-6.2c3.55-2.29,5.89-3.8,11.42-3.8a7.5,7.5,0,0,0,0-15ZM224.24,15.61a86.57,86.57,0,0,1,74.58,42.7l-1.26.8c-3.54,2.29-5.88,3.8-11.41,3.8s-7.87-1.51-11.41-3.8c-4.28-2.76-9.6-6.2-19.55-6.2s-15.28,3.44-19.55,6.2c-3.55,2.29-5.89,3.8-11.41,3.8s-7.87-1.51-11.41-3.8c-4.28-2.76-9.6-6.2-19.55-6.2s-15.28,3.44-19.55,6.2c-3.55,2.29-5.89,3.8-11.42,3.8s-7.87-1.51-11.41-3.8l-1.24-.79A86.57,86.57,0,0,1,224.24,15.61ZM297.1,157.76a165.09,165.09,0,0,0-16.1,70.5V289.7a26.81,26.81,0,0,0,8.28,19.3,26.45,26.45,0,0,0,19.7,7.33c14.21-.69,25.34-12.63,25.34-27.18V265.78a8.57,8.57,0,0,1,8.57-8.57h.18c4.63.09,8.4,4.17,8.4,9.11V289.7a43.85,43.85,0,0,1-43.9,43.8h-1c-23.57-.56-42.74-20.63-42.74-44.75V217.42a7.5,7.5,0,1,0-15,0h0V388.51c0,14.54,11.12,26.48,25.32,27.18a26.4,26.4,0,0,0,19.71-7.33,26.71,26.71,0,0,0,8.28-19.3v-10.6a8.91,8.91,0,0,1,8.42-9.1,8.55,8.55,0,0,1,8.73,8.37V388.1c0,24.11-19.18,44.19-42.75,44.76A43.88,43.88,0,0,1,231.72,390c0-.31,0-.62,0-.93V226.75a7.5,7.5,0,0,0-15,0V388.13c0,24.1-19.19,44.16-42.75,44.72A43.88,43.88,0,0,1,129.11,390c0-.31,0-.62,0-.93V378.46a8.89,8.89,0,0,1,8.4-9.1,8.56,8.56,0,0,1,8.74,8.38V388.5c0,14.55,11.13,26.49,25.33,27.18a26.44,26.44,0,0,0,19.71-7.33,26.81,26.81,0,0,0,8.28-19.3V217.42a7.5,7.5,0,0,0-15,0V289.7a43.85,43.85,0,0,1-43.9,43.8h-1C116.15,332.93,97,312.86,97,288.74v-23a8.57,8.57,0,0,1,8.57-8.57h.17c4.63.09,8.4,4.18,8.4,9.11V289.7A26.79,26.79,0,0,0,122.4,309a26.45,26.45,0,0,0,19.7,7.33c14.21-.69,25.34-12.63,25.34-27.18V228.26a165.13,165.13,0,0,0-16.06-70.51c-8.82-18.8-13.68-38.55-13.68-55.61A86.16,86.16,0,0,1,143.14,72c4.21,2.72,9.5,6,19.16,6,10,0,15.28-3.44,19.55-6.2,3.55-2.28,5.89-3.8,11.42-3.8s7.86,1.52,11.41,3.8c4.27,2.77,9.59,6.2,19.54,6.2s15.28-3.44,19.55-6.2c3.55-2.28,5.89-3.8,11.41-3.8s7.87,1.52,11.42,3.8c4.27,2.77,9.59,6.2,19.55,6.2a31.49,31.49,0,0,0,19.18-6,86,86,0,0,1,5.44,30.19C310.77,119.2,305.92,139,297.1,157.76Z"/></svg>