<svg id="Capa_1" data-name="Capa 1" xmlns="http://www.w3.org/2000/svg" viewBox="0 0 512 512"><defs><style>.cls-1{fill:#bbb9b3;}</style></defs><path class="cls-1" d="M488.46,463c-5.95,4-24.85,14.42-40.58,14.42-18.34,0-28.43-6.85-38.18-13.47l-1.41-1c-11.6-7.83-27.49-18.56-56.39-18.56-28.53,0-45.24,11.14-56.3,18.51l-1.79,1.2c-9.72,6.53-19.76,13.28-37.88,13.28-18.64,0-28.78-7-38.57-13.73l-.92-.63c-10.14-7-27.11-18.63-56.48-18.63-23.07,0-50.26,15-55.47,18-1.85,1.07-3.71,2.22-5.51,3.33-9.28,5.74-18.87,11.67-35,11.67-8.4,0-30.11-9.15-42.12-15.33A15,15,0,0,0,8.13,488.77c6,3.11,37.17,18.66,55.85,18.66,24.66,0,40.37-9.72,50.77-16.15,1.68-1,3.26-2,4.71-2.85,11.69-6.74,29.36-14,40.5-14,20.06,0,30.83,7.4,39.49,13.36l.89.61c11,7.57,27.62,19,55.59,19,27.25,0,43.71-11.06,54.6-18.37l1.7-1.15c9.94-6.62,20.22-13.47,39.67-13.47,19.72,0,29.38,6.52,39.6,13.42l1.36.93c10.93,7.42,27.46,18.64,55,18.64,27.8,0,54.47-17.59,57.42-19.59A15,15,0,0,0,488.46,463Z"/><path class="cls-1" d="M8.13,400.79c6,3.12,37.17,18.66,55.86,18.66,24.65,0,40.36-9.71,50.76-16.14,1.68-1,3.27-2,4.71-2.85,11.7-6.74,29.36-14,40.5-14,20.06,0,30.83,7.41,39.49,13.36l.9.62c11,7.57,27.61,19,55.58,19,27.25,0,43.71-11.05,54.6-18.37l1.71-1.14c9.93-6.63,20.21-13.48,39.66-13.48,19.72,0,29.38,6.52,39.6,13.43l1.36.92c10.93,7.42,27.46,18.64,55,18.64,27.78,0,54.56-17.54,57.52-19.54a14.93,14.93,0,0,0,6.6-12.49c-.49-108.84-19.56-214.08-25.17-242.75,11.26-13.58,18-28.33,20.09-43.95,3.15-23.73-4.74-48.06-23.45-72.32a15,15,0,0,0-17.82-4.6C427.77,40.17,406.58,57.4,399,78a50.48,50.48,0,0,0-2,7,52.94,52.94,0,0,0-6.48-1.43c-21.82-3.32-47.35,7-80.35,32.44a15,15,0,0,0-4.61,17.83c17.53,40.53,44.39,61.35,78.58,61.34q3.45,0,7-.29c-2.75,31.95-12.91,100.3-50.44,162.15-21.8,2.44-35.49,11.56-45,17.89l-1.79,1.21c-2.25,1.5-4.51,3-6.89,4.46V147.53c0-78.83-64.13-143-143-143C64.58,4.57,0,68.7,0,147.53V387.46H0a15,15,0,0,0,8.12,13.33Zm330-268.17c25.45-17.87,39.92-20.54,47.78-19.35,6.77,1,12.66,5.55,19.07,14.63h0a15,15,0,0,0,25.9-15c-5.14-10.55-6.29-17.88-3.84-24.51C429.81,81,439,69.8,466.49,56.4c16.88,27,14.64,51.17-6.69,73.55A15,15,0,0,0,456,143.39c.25,1.18,24.31,116.65,25.95,235.61-8.62,4.62-22.25,10.46-34.05,10.46-18.34,0-28.42-6.84-38.18-13.47l-1.41-.95c-8.2-5.55-18.56-12.53-34.13-16.15,45.61-83.82,47.8-171.45,47.9-181.9v-.37A15,15,0,0,0,400.83,163c-19.67,5-43.58,4.88-62.69-30.37ZM144,34.56a113.1,113.1,0,0,1,113,113V299.6c-.79-.42-1.59-.84-2.41-1.22a60.4,60.4,0,0,0-26.22-5.89H191V262.06l.51-.28a95.45,95.45,0,0,0,47.46-81h0c0-1.4,0-8.3,0-49.26a15,15,0,0,0-24.21-11.83c-26.76,20.81-59.15,30.88-96.3,29.86-28.46-.76-49.15-8.06-49.32-8.13A15,15,0,0,0,49,155.53c0,20.13,0,24.22,0,25.26h0a95.41,95.41,0,0,0,47.45,81l.52.29v30.43H59.63a61.22,61.22,0,0,0-11.19,1A62.58,62.58,0,0,0,30,300V147.53c0-62.29,51.13-113,114-113ZM111.48,235.81A65.32,65.32,0,0,1,79,180.4V175a217.75,217.75,0,0,0,37.5,4.49c33.64,1.09,65.11-5.93,92.45-20.46,0,11.22,0,20.43,0,21.35a65,65,0,0,1-97.45,55.41ZM53.9,323a31.24,31.24,0,0,1,5.73-.53H112a15,15,0,0,0,15-15V273a93.95,93.95,0,0,0,34,0v34.54a15,15,0,0,0,15,15H228.3a30.65,30.65,0,0,1,13.33,3c9.44,4.49,15.3,13.24,15.3,22.84v41.14l-1,0c-18.64,0-28.78-7-38.57-13.72l-.92-.63c-10.14-7-27.11-18.64-56.48-18.64-23.07,0-50.26,15-55.47,18-1.85,1.06-3.71,2.21-5.51,3.33-9.28,5.73-18.87,11.66-35,11.66-6.73,0-22-5.87-34-11.39V348.3C30,336.39,40.26,325.52,53.9,323Z"/></svg>