<svg id="Capa_1" enable-background="new 0 0 512.143 512.143" height="512" viewBox="0 0 512.143 512.143" width="512" xmlns="http://www.w3.org/2000/svg"><g><path d="m488.595 463.149c-5.954 4.012-24.854 14.422-40.592 14.422-18.344 0-28.432-6.848-38.187-13.47l-1.416-.96c-11.602-7.837-27.489-18.57-56.397-18.57-28.543 0-45.259 11.145-56.32 18.52l-1.795 1.202c-9.717 6.528-19.765 13.278-37.885 13.278-18.649 0-28.785-6.98-38.586-13.73l-.917-.631c-10.142-6.972-27.117-18.639-56.497-18.639-23.073 0-50.271 14.997-55.488 18.003-1.848 1.064-3.708 2.215-5.508 3.328-9.277 5.736-18.87 11.669-35.004 11.669-8.4 0-30.109-9.151-42.131-15.335-7.364-3.794-16.411-.899-20.204 6.466-3.794 7.364-.899 16.41 6.465 20.204 6.05 3.116 37.179 18.665 55.869 18.665 24.66 0 40.38-9.721 50.782-16.153 1.678-1.038 3.263-2.019 4.706-2.85 11.701-6.741 29.369-13.997 40.512-13.997 20.064 0 30.843 7.408 39.503 13.361l.895.616c11 7.575 27.622 19.022 55.602 19.022 27.261 0 43.722-11.059 54.614-18.376l1.706-1.144c9.941-6.627 20.221-13.48 39.68-13.48 19.725 0 29.38 6.523 39.603 13.43l1.361.922c10.939 7.426 27.472 18.648 55.036 18.648 27.813 0 54.485-17.591 57.435-19.596 6.84-4.651 8.61-13.953 3.974-20.803-4.635-6.848-13.957-8.645-20.816-4.022z"/><path d="m8.134 400.906c6.05 3.116 37.179 18.665 55.869 18.665 24.66 0 40.38-9.721 50.782-16.153 1.678-1.038 3.263-2.019 4.706-2.85 11.701-6.741 29.369-13.997 40.512-13.997 20.064 0 30.843 7.408 39.503 13.361l.895.616c11 7.575 27.622 19.022 55.602 19.022 27.261 0 43.722-11.059 54.614-18.376l1.706-1.144c9.941-6.627 20.221-13.48 39.68-13.48 19.725 0 29.38 6.523 39.603 13.43l1.361.922c10.939 7.426 27.472 18.648 55.036 18.648 27.787 0 54.58-17.546 57.543-19.546 4.308-2.908 6.617-7.659 6.596-12.491-.488-108.873-19.561-214.141-25.177-242.823 11.269-13.585 18.019-28.341 20.094-43.962 3.154-23.739-4.735-48.078-23.449-72.339-4.19-5.434-11.535-7.33-17.83-4.606-37.886 16.381-59.088 33.614-66.722 54.232-.881 2.378-1.551 4.728-2.041 7.042-2.06-.597-4.213-1.084-6.477-1.429-21.83-3.325-47.368 6.986-80.378 32.445-5.434 4.19-7.331 11.534-4.607 17.832 17.533 40.545 44.402 61.365 78.599 61.362 2.299 0 4.634-.102 6.999-.291-2.75 31.961-12.92 100.326-50.461 162.196-21.798 2.434-35.498 11.556-45.01 17.897l-1.794 1.202c-2.244 1.507-4.51 3.023-6.885 4.469v-32.36-200.83c0-78.851-64.149-143-143-143-79.402 0-144 64.149-144 143v200.83 39.17h.009c.005 5.434 2.959 10.677 8.122 13.336zm330.1-268.25c25.455-17.878 39.929-20.545 47.794-19.35 6.771 1.03 12.664 5.545 19.079 14.626l.015-.011c4.112 6.108 12.187 8.419 18.993 5.104 7.447-3.63 10.542-12.608 6.913-20.056-5.144-10.554-6.29-17.886-3.835-24.517 2.734-7.386 11.946-18.633 39.43-32.04 16.877 27.029 14.646 51.186-6.697 73.579-3.41 3.578-4.839 8.606-3.819 13.443.249 1.181 24.32 116.674 25.955 235.676-8.622 4.619-22.253 10.46-34.057 10.46-18.344 0-28.432-6.848-38.187-13.47l-1.416-.96c-8.204-5.542-18.559-12.528-34.138-16.146 45.624-83.85 47.816-171.506 47.91-181.958.001-.045.001-.091.001-.136v-.23c0-8.284-6.716-15-15-15-2.225 0-4.33.498-6.229 1.367-19.676 5.033-43.601 4.884-62.712-30.381zm-194.231-98.085c62.309 0 113 50.691 113 113v152.109c-.792-.421-1.591-.832-2.408-1.221-8.2-3.906-17.026-5.888-26.232-5.888h-37.36v-30.438c.169-.097.341-.187.509-.284 28.852-16.685 47.043-47.727 47.475-81.012h-.003c.011-1.394.019-8.297.019-49.267 0-5.729-3.263-10.958-8.41-13.475-5.146-2.518-11.276-1.882-15.799 1.635-26.774 20.824-59.169 30.895-96.334 29.876-28.466-.766-49.158-8.071-49.331-8.133-4.599-1.671-9.724-.996-13.731 1.811-4.008 2.808-6.395 7.393-6.395 12.286 0 20.138.007 24.23.018 25.267h-.002c.432 33.285 18.624 64.327 47.472 81.01.169.098.342.188.512.285v30.438h-37.36c-3.77 0-7.547.348-11.194 1.028-6.637 1.221-12.837 3.453-18.446 6.484v-152.511c0-62.308 51.14-113 114-113zm-32.491 201.308c-19.749-11.42-32.201-32.66-32.497-55.432 0-.014 0-.027 0-.042-.003-.446-.005-2.479-.007-5.333 9.831 2.054 22.732 4.015 37.512 4.491 33.647 1.087 65.131-5.938 92.481-20.472-.002 11.23-.005 20.438-.01 21.359-.297 22.769-12.749 44.009-32.5 55.43-9.826 5.686-21.06 8.69-32.488 8.69s-22.662-3.004-32.491-8.691zm-57.6 87.219c1.873-.35 3.801-.526 5.731-.526h52.36c8.284 0 15-6.716 15-15v-34.544c5.588 1.015 11.277 1.544 17 1.544s11.412-.529 17-1.544v34.544c0 8.284 6.716 15 15 15h52.36c4.706 0 9.19 1 13.333 2.974 9.442 4.494 15.307 13.252 15.307 22.856v41.146c-.337.005-.657.023-1 .023-18.649 0-28.785-6.98-38.586-13.73l-.917-.631c-10.142-6.972-27.117-18.639-56.497-18.639-23.073 0-50.271 14.997-55.488 18.003-1.848 1.064-3.708 2.215-5.508 3.328-9.277 5.736-18.87 11.669-35.004 11.669-6.732 0-22.009-5.877-34-11.395v-29.775c0-11.917 10.264-22.793 23.909-25.303z"/></g></svg>