<svg id="Layer_1" data-name="Layer 1" xmlns="http://www.w3.org/2000/svg" viewBox="0 0 512 512"><defs><style>.cls-1{fill:#20201f;}</style></defs><circle class="cls-1" cx="122.75" cy="83.48" r="16.7"/><circle class="cls-1" cx="389.89" cy="83.48" r="16.7"/><path class="cls-1" d="M511.32,414.28a16.71,16.71,0,0,0-18.9-14.17c-6.1.94-18.41-14.54-16.52-27.66a51.32,51.32,0,0,0-15.28-43.81c24.45-17.23,39.37-31.22,41-32.75a16.7,16.7,0,0,0,.51-23.61l-.51-.51C498.71,269,453,226.08,384.87,196l6.06-29.13a83.44,83.44,0,1,0-32.81-6.26l-4.8,23.06c-29.66-10-62.38-16.74-97-16.74s-67.34,6.74-97,16.74l-4.79-23.06a83.51,83.51,0,1,0-32.81,6.26l6,29.13C59.63,226.08,13.92,269,11,271.77a16.7,16.7,0,0,0-.51,23.61l.51.51c1.6,1.52,16.39,15.39,40.63,32.5-.26.24-.53.44-.78.69A51.45,51.45,0,0,0,36.1,372.45C38,385.58,25.69,401,19.58,400.11a16.69,16.69,0,0,0-4.72,33.05h0c32.88,4.71,58.7-34.59,54.3-65.44-1.23-8.59,5.23-18.2,13.52-19.24q10.5,6.21,22.23,12.29c-11.3,17.16-12.69,39.83-2.65,56.78,5.73,9.68-1.15,30.73-8.93,32.72a16.7,16.7,0,1,0,7.61,32.52l.67-.17c31.73-8.13,45.33-55.16,29.39-82.09-4.1-6.91-1.91-19.65,5.33-25.22,9.36,3.86,19.07,7.44,29.16,10.63-6.91,21.26-1.67,48.05,16.25,61.5,7.73,5.79,7.76,28.69,0,34.51a16.7,16.7,0,0,0,18.83,27.59c.4-.28.79-.57,1.17-.88,25.6-19.21,25.6-68.72,0-87.93-3.49-2.62-5.84-9-5.84-15.86a26.91,26.91,0,0,1,2.1-10.51,286.11,286.11,0,0,0,58.27,6.33,286.21,286.21,0,0,0,57.7-6.21c4.31,10.16,1.2,22.5-3.8,26.25-25.59,19.21-25.6,68.72,0,87.93a16.7,16.7,0,1,0,21-26q-.42-.35-.87-.66c-7.76-5.82-7.73-28.72,0-34.51,17.83-13.38,23.15-40,16.3-61.33q15.21-4.79,29.32-10.62c7.11,5.72,9.16,18.23,5.12,25-15.9,26.86-2.41,73.93,29.39,82.08a16.7,16.7,0,0,0,8.28-32.35c-7.78-2-14.67-23-8.93-32.72,9.51-16.06,9.22-38.5-2.51-56.54q12-6.17,22.7-12.52c7.54,1.34,14.17,10.43,12.91,19.24-4.4,30.82,21.41,70.15,54.3,65.43a16.71,16.71,0,0,0,14.19-18.88ZM122.75,133.57a50.09,50.09,0,1,1,50.09-50.09h0A50.15,50.15,0,0,1,122.75,133.57Zm217-50.09a50.09,50.09,0,1,1,50.09,50.09h0a50.16,50.16,0,0,1-50-50.09Z"/></svg>