<svg id="Calque_1" data-name="Calque 1" xmlns="http://www.w3.org/2000/svg" viewBox="0 0 512 512"><defs><style>.cls-1{fill:#20201f;}</style></defs><path class="cls-1" d="M256,512c74.44,0,135-61,135-136,0-62.46-30.61-124.1-58.79-167.63a44.91,44.91,0,0,0-4.12-54.32A45,45,0,0,0,301,72.31V0H211V102.57l-8.84,3.21A45,45,0,0,0,183.91,178a44.94,44.94,0,0,0-16.73,50.91C136.54,281.43,121,330.9,121,376,121,451,181.56,512,256,512Zm0-30c-57.9,0-105-47.55-105-106,0-37,12.29-78.07,36.55-122.25a44.87,44.87,0,0,0,31.81,4.95C198.73,294.06,181,336.06,181,376c0,41.41,33.58,76,75,76s75-34.58,75-76c0-48.64-25.92-99.93-51.54-138.73l28.91-10.52C333.89,266.59,361,321.68,361,376,361,434.45,313.9,482,256,482ZM204.75,200.62l84.58-30.79A15,15,0,0,1,299.58,198c0-.1-79.31,27.59-84.57,30.78a15,15,0,0,1-10.26-28.19Zm51.32,55.73C276.59,288,301,334.41,301,376c0,24.93-20.61,46-45,46s-45-21.07-45-46C211,334.66,235.5,288.14,256.07,256.35ZM241,30h30V80.73L241,91.64ZM212.42,134,297,103.19a15,15,0,0,1,10.26,28.19l-84.57,30.78a15,15,0,1,1-11.44-27.73C211.64,134.27,212,134.13,212.42,134Z"/></svg>