<svg id="Layer_3" data-name="Layer 3" xmlns="http://www.w3.org/2000/svg" viewBox="0 0 512 512"><defs><style>.cls-1{fill:#20201f;}</style></defs><path class="cls-1" d="M472,224H453.41a198.91,198.91,0,0,0-36.08-86L440,115.31a27.3,27.3,0,0,0,0-38.61h0L435.31,72C425,61.68,407,61.68,396.69,72L374,94.67a198.91,198.91,0,0,0-86-36.08V40a32,32,0,0,0-64,0V58.59a198.91,198.91,0,0,0-86,36.08L115.31,72C105,61.68,87,61.68,76.69,72L72,76.69a27.3,27.3,0,0,0,0,38.61h0L94.67,138a198.91,198.91,0,0,0-36.08,86H40a32,32,0,0,0,0,64H58.59a198.91,198.91,0,0,0,36.08,86L72,396.69a27.3,27.3,0,0,0,0,38.61h0L76.69,440a27.3,27.3,0,0,0,38.61,0h0L138,417.33a198.91,198.91,0,0,0,86,36.08V472a32,32,0,0,0,64,0V453.41a198.91,198.91,0,0,0,86-36.08L396.69,440a27.3,27.3,0,0,0,38.61,0h0l4.69-4.69a27.3,27.3,0,0,0,0-38.61h0L417.33,374a198.91,198.91,0,0,0,36.08-86H472a32,32,0,0,0,0-64ZM408,83.31a11.71,11.71,0,0,1,16,0L428.69,88a11.33,11.33,0,0,1,0,16l-21.41,21.41a200.07,200.07,0,0,0-20.69-20.69ZM240,40a16,16,0,0,1,32,0V56.7c-5.29-.42-10.61-.7-16-.7s-10.71.28-16,.7ZM83.31,104a11.33,11.33,0,0,1,0-16L88,83.31a11.71,11.71,0,0,1,16,0l21.41,21.41a200.07,200.07,0,0,0-20.69,20.69ZM40,272a16,16,0,0,1,0-32H56.7c-.42,5.29-.7,10.61-.7,16s.28,10.71.7,16Zm64,156.69a11.71,11.71,0,0,1-16,0L83.31,424a11.33,11.33,0,0,1,0-16l21.41-21.41a200.07,200.07,0,0,0,20.69,20.69ZM272,472a16,16,0,0,1-32,0V455.3c5.29.42,10.61.7,16,.7s10.71-.28,16-.7Zm156.69-64a11.33,11.33,0,0,1,0,16L424,428.69a11.71,11.71,0,0,1-16,0l-21.41-21.41a200.07,200.07,0,0,0,20.69-20.69ZM256,440C154.54,440,72,357.46,72,256S154.54,72,256,72s184,82.54,184,184S357.46,440,256,440ZM472,272H455.3c.42-5.29.7-10.61.7-16s-.28-10.71-.7-16H472a16,16,0,0,1,0,32Z"/><path class="cls-1" d="M256,88C163.36,88,88,163.36,88,256s75.36,168,168,168,168-75.36,168-168S348.64,88,256,88Zm117.28,71.41L339,193.65A105.21,105.21,0,0,0,318.35,173l34.24-34.24A152.93,152.93,0,0,1,373.28,159.41ZM408,256a150,150,0,0,1-.86,16h-48.5A103.34,103.34,0,0,0,360,256a104.59,104.59,0,0,0-1.36-16h48.5A150,150,0,0,1,408,256ZM304.58,347.89l35,35A151.16,151.16,0,0,1,288,404.54V354.91a103.62,103.62,0,0,0,16.58-7ZM256,344a88,88,0,1,1,88-88A88,88,0,0,1,256,344Zm-32,10.91v49.63a151.15,151.15,0,0,1-51.54-21.69l35-35a103.62,103.62,0,0,0,16.58,7ZM104,256a150,150,0,0,1,.86-16h48.5a95,95,0,0,0,0,32h-48.5A150,150,0,0,1,104,256Zm53.09-32H107.46a151.15,151.15,0,0,1,21.69-51.54l35,35a103.62,103.62,0,0,0-7,16.58Zm0,64a103.62,103.62,0,0,0,7,16.58l-35,35A151.11,151.11,0,0,1,107.46,288Zm50.33-123.89-35-35A151.16,151.16,0,0,1,224,107.46v49.63a103.62,103.62,0,0,0-16.58,7Zm80.58-7V107.46a151.15,151.15,0,0,1,51.54,21.69l-35,35a103.62,103.62,0,0,0-16.58-7ZM354.91,288h49.63a151.15,151.15,0,0,1-21.69,51.54l-35-35a103.62,103.62,0,0,0,7-16.58Zm0-64a103.62,103.62,0,0,0-7-16.58l35-35A151.11,151.11,0,0,1,404.54,224ZM272,104.86v48.5a95,95,0,0,0-32,0v-48.5A148.84,148.84,0,0,1,272,104.86ZM159.41,138.72,193.65,173A105.21,105.21,0,0,0,173,193.65l-34.24-34.24A152.93,152.93,0,0,1,159.41,138.72ZM138.72,352.59,173,318.35A105.21,105.21,0,0,0,193.65,339l-34.24,34.24A152.93,152.93,0,0,1,138.72,352.59ZM240,407.14v-48.5A103.34,103.34,0,0,0,256,360a104.59,104.59,0,0,0,16-1.36v48.5A148.84,148.84,0,0,1,240,407.14Zm112.59-33.86L318.35,339A105.21,105.21,0,0,0,339,318.35l34.24,34.24a152.93,152.93,0,0,1-20.65,20.69Z"/><path class="cls-1" d="M256,184a72.07,72.07,0,0,0-72,72,24,24,0,0,0,16,22.63V288a24,24,0,0,0,24,24h64a24,24,0,0,0,24-24v-9.37A24,24,0,0,0,328,256,72.07,72.07,0,0,0,256,184Zm48,80a8,8,0,0,0-8,8v16a8,8,0,0,1-8,8h-8V280H264v16H248V280H232v16h-8a8,8,0,0,1-8-8V272a8,8,0,0,0-8-8,8,8,0,0,1-8-8,56,56,0,0,1,112,0A8,8,0,0,1,304,264Z"/><path class="cls-1" d="M228,224a12,12,0,1,0,12,12A12,12,0,0,0,228,224Z"/><path class="cls-1" d="M284,224a12,12,0,1,0,12,12A12,12,0,0,0,284,224Z"/><path class="cls-1" d="M248,248h16v16H248Z"/></svg>