<svg id="Capa_1" data-name="Capa 1" xmlns="http://www.w3.org/2000/svg" viewBox="0 0 297 297"><defs><style>.cls-1{fill:#bbb9b3;}</style></defs><path class="cls-1" d="M204.18,92.33H189.26V50.79h5.37a10,10,0,0,0,10-10V10a10,10,0,0,0-10-10H102.37a10,10,0,0,0-10,10V40.79a10,10,0,0,0,10,10h5.37V92.33H92.82a39,39,0,0,0-38.9,38.92V258.08A39,39,0,0,0,92.82,297H204.18a39,39,0,0,0,38.9-38.92V131.25A39,39,0,0,0,204.18,92.33ZM112.38,20h72.24V30.78H112.38ZM223.07,258.08A18.91,18.91,0,0,1,204.18,277H92.82a18.91,18.91,0,0,1-18.89-18.9V131.25a18.91,18.91,0,0,1,18.89-18.9h24.93a10,10,0,0,0,10-10V50.79h41.49v51.55a10,10,0,0,0,10,10h24.93a18.91,18.91,0,0,1,18.88,18.9V258.08Z"/><path class="cls-1" d="M194.63,138.49H102.37a10,10,0,0,0-10,10v92.33a10,10,0,0,0,10,10h92.26a10,10,0,0,0,10-10V148.5A10,10,0,0,0,194.63,138.49Zm-10,92.33H112.38V158.51h72.24Z"/><path class="cls-1" d="M126.05,217.13a10,10,0,0,0,14.16,0l8.29-8.3,8.29,8.3A10,10,0,0,0,171,203l-8.31-8.32,8.31-8.31a10,10,0,0,0-14.17-14.15l-8.29,8.3-8.29-8.3a10,10,0,1,0-14.16,14.15l8.3,8.31-8.3,8.32A10,10,0,0,0,126.05,217.13Z"/></svg>