<svg id="Capa_1" data-name="Capa 1" xmlns="http://www.w3.org/2000/svg" viewBox="0 0 512 512"><defs><style>.cls-1{fill:#bbb9b3;}</style></defs><path class="cls-1" d="M472.92,283.7c-7.17,4.49-11.91,7.45-23.18,7.45s-16-3-23.18-7.45c-6.45-4-14.11-8.81-26-10.91-12.15-62.84-50.69-116-114.73-158.24-54.61-36-113.55-54-135.74-60.8a22.36,22.36,0,0,0-23.15,6.36,20.7,20.7,0,0,0-3.64,22.24l25.79,59.47c18.6,42.91,23.16,89,13.37,134a66.29,66.29,0,0,0-24-4.07c-19.87,0-30.52,6.65-39.08,12-7.17,4.49-11.91,7.45-23.18,7.45s-16-3-23.17-7.45c-8.56-5.35-19.21-12-39.08-12H0v30H14c11.26,0,16,3,23.18,7.44,8.56,5.35,19.21,12,39.07,12s30.52-6.66,39.08-12c7.18-4.48,11.92-7.44,23.18-7.44s16,3,23.17,7.44c8.56,5.35,19.21,12,39.08,12s30.52-6.66,39.07-12c7.18-4.48,11.92-7.44,23.18-7.44s16,3,23.18,7.44c8.56,5.35,19.21,12,39.07,12s30.52-6.66,39.08-12c7.17-4.48,11.91-7.44,23.18-7.44s16,3,23.18,7.44c8.56,5.35,19.21,12,39.07,12s30.52-6.66,39.08-12c7.18-4.48,11.92-7.44,23.18-7.44v-30c-19.87,0-30.52,6.65-39.08,12Zm-124.51,0c-7.18,4.49-11.92,7.45-23.18,7.45s-16-3-23.18-7.45c-8.56-5.35-19.21-12-39.07-12s-30.52,6.65-39.08,12c-7.17,4.49-11.91,7.45-23.17,7.45A39.51,39.51,0,0,1,190,289.87c13.43-53.57,8.85-108.78-13.36-160l-18.21-42C280.9,128.76,352,191.18,370.13,273.71c-9.5,2.38-16.08,6.47-21.72,10Z"/><path class="cls-1" d="M449.74,360.19c-11.26,0-16-3-23.18-7.45-8.56-5.35-19.21-12-39.07-12s-30.52,6.65-39.08,12c-7.18,4.49-11.92,7.45-23.18,7.45s-16-3-23.17-7.45c-8.56-5.35-19.22-12-39.08-12s-30.52,6.65-39.08,12c-7.17,4.49-11.91,7.45-23.17,7.45s-16-3-23.18-7.45c-8.55-5.35-19.21-12-39.07-12s-30.52,6.65-39.08,12c-7.17,4.49-11.91,7.45-23.17,7.45s-16-3-23.18-7.45c-8.56-5.35-19.21-12-39.07-12H0v30H14c11.26,0,16,3,23.17,7.44,8.56,5.35,19.21,12,39.08,12s30.51-6.66,39.07-12c7.18-4.48,11.92-7.44,23.18-7.44s16,3,23.17,7.44c8.56,5.35,19.22,12,39.08,12s30.52-6.66,39.08-12c7.17-4.48,11.91-7.44,23.17-7.44s16,3,23.18,7.44c8.56,5.35,19.21,12,39.07,12s30.52-6.66,39.08-12c7.17-4.48,11.91-7.44,23.18-7.44s16,3,23.18,7.44c8.56,5.35,19.21,12,39.07,12s30.52-6.66,39.08-12c7.18-4.48,11.92-7.44,23.18-7.44v-30c-19.87,0-30.52,6.65-39.08,12-7.17,4.49-11.92,7.45-23.18,7.45Z"/><path class="cls-1" d="M325.23,429.23c-11.26,0-16-3-23.18-7.45-8.56-5.35-19.21-12-39.07-12s-30.52,6.65-39.08,12c-7.17,4.49-11.91,7.45-23.17,7.45s-16-3-23.18-7.45c-8.56-5.35-19.21-12-39.07-12v30c11.26,0,16,3,23.17,7.44,8.56,5.35,19.21,12,39.08,12s30.52-6.66,39.07-12c7.18-4.48,11.92-7.44,23.18-7.44s16,3,23.18,7.44c8.56,5.35,19.21,12,39.07,12s30.52-6.66,39.08-12c7.17-4.48,11.91-7.44,23.18-7.44v-30c-19.87,0-30.52,6.65-39.08,12-7.18,4.49-11.92,7.45-23.18,7.45Z"/></svg>