<svg id="Calque_1" data-name="Calque 1" xmlns="http://www.w3.org/2000/svg" viewBox="0 0 195.93 188.11"><defs><style>.cls-1{fill:#fff;}</style></defs><path class="cls-1" d="M75.7,179l2,3.75c-5,1.78-8.56-1.65-12.6-3.16a6.75,6.75,0,0,0,3,6.61c1.82,1,3.71,1.9,5.57,2.83,1.5.75,1.75,2.05.27,2.77A15.66,15.66,0,0,1,68,193.57a25.11,25.11,0,0,1-16.93-5.3c-2.52,2.09-4.88,4.57-8.56,3.83a5,5,0,0,1-2.75-1.41,5.41,5.41,0,0,0-4.65-2.14c-5,.14-9.92.35-14.88.54a20.08,20.08,0,0,0-2.33.09c-7.81.86-12-4-15.33-9.91-1.31-2.28-.39-4.92,1.56-5.1.77-.07,2.2.35,2.29.77a5.42,5.42,0,0,1-.56,2.88c-.16.4-.84.58-1.36.9a6.45,6.45,0,0,0,5.42,4.6,40.8,40.8,0,0,0,10.81.48c8-1,15.29-4,21.16-9.76a18.68,18.68,0,0,0,5.23-10.21c.66-3.75-1.4-6.81-3.81-10.41-.87,3.2-2.66,3.76-5.08,3.52-2-.19-3.45-.84-4.36-2.59a4.17,4.17,0,0,1,.42-5,11.22,11.22,0,0,1,4.71-3.1c5.42-1.51,10.41,0,15,3,.11-.19.27-.37.24-.42-2.83-4.56-1.8-9.4-1.09-14.23.35-2.34,1.18-4.81-.8-6.84A3.76,3.76,0,0,0,50,126.53c-6,.3-10.48-2.38-14.24-6.6s-7.31-8.54-7.22-14.65c0-1-.07-2,0-3,.12-1.53-.17-2.63-2.43-2.37.53-1.42.9-2.57,1.38-3.68,1.44-3.39,1.11-4.53-1.78-6.58C24.09,88.5,22.58,87.2,21,86c-1-.81-2.09-1.58-3.11-2.39S16,82,15,81.19l.42-.59,6.32,4.29c2.46,1.67,4.88,3.4,7.4,5a2.32,2.32,0,0,0,2.05-.16c1.81-1.17,3.51-2.52,5.25-3.8.31-.23.59-.64.92-.69,3.39-.53,3.48-3,3.92-5.74,1.13-7,4.41-13.18,8.4-19,.39-.57.84-1.11,1.35-1.78l-1.67-.35c.58-2,1.93-2.91,3.8-3.6a57.39,57.39,0,0,0,8-3.7c2.08-1.17,2.85-3.21,3.12-5.64a33,33,0,0,1,1.87-8.32c.75-1.92,2.37-3.53,3.77-5.13,1-1.13,1.87-2-.5-3.15,2.38-1.78,4.58-3.34,6.67-5a3.86,3.86,0,0,0,1.48-2.09c.37-2.52.48-5.07.84-7.64.31,2.47.63,4.94,1,7.49,5.68-2.31,11.24-1.19,17-.16-4.87,1.91-7.72,5.26-8.18,10.34-.41,4.5-1.14,9.05.68,13.44,4.72-1.25,9.16-2.47,13.63-3.61,1.48-.38,3.58-.06,4.34-1s-.12-2.84-.23-4.33c-.83-10.93,7.41-22.19,18.1-24.86A2.38,2.38,0,0,0,126.08,10a24.3,24.3,0,0,0,.56-3.5c.18.15.33.21.35.3,1,4.2,1,4,5.33,4.33a90.85,90.85,0,0,1,12.38,1.85c1.83.41,3.44,1.81,5.58,3-2.94,1.65-5.26,3-7.63,4.28-4.19,2.24-6.66,5.59-6.56,10.43.07,3.52.46,7,.69,10.54v2c-2.6-3-5.09-3.84-7.61-.22,2.05,2.7,5.56,2.69,8.33,4.37l1-1.79c3.44,4.31,7.8,7.31,12.28,10.21,1.57,1,2.72,2.68,4,4.09.62.68,1.1,1.48,1.65,2.22l.89-.33a17,17,0,0,0,.57-3.4c-.19-6.28-.5-12.56-.76-18.84-.08-2.17-.22-4.35-.16-6.51,0-.64.62-1.26,1.33-1.76.33,9-.5,17.84,1.43,26.88C169,50.25,177,41.44,188.23,35.85c-.3,1.08-.41,1.69-.64,2.25a37.52,37.52,0,0,1-10.79,15c-1.37,1.14-2.71,2.33-4.1,3.45-7.17,5.78-10.83,13.61-12,22.43-1.25,9.13-1.68,18.36-2.42,27.55-.22,2.71-.25,5.42-.42,8.13-.12,2,.33,3.38,2.7,3.27,1.68-.08,4.07.53,4.88-.34,1.5-1.6,2.13-4,3-6.2.19-.48-.21-1.18-.32-1.78-.48-2.63-1-5.25-1.36-7.89a2,2,0,0,1,.86-1.66c1.47-.7,2.67-2.9,4.67-1.34a6.17,6.17,0,0,1,1.28,7.74c-1.21,2.34-2.6,4.6-3.6,7-1.5,3.61-.62,4.85,3.18,5.25.54.06,1.43.65,1.42,1a2.15,2.15,0,0,1-.92,1.7c-6.29,2.17-12.58,4.36-19,6.22-1.54.45-3.42-.24-5.14-.48a19.14,19.14,0,0,0-3.62-.43c3,2.34,6.38,4.13,10.28,3.23,2.91-.68,5.64-2.14,8.49-3.13s6-1.94,8.91-2.87c1.77,2.7,1.63,3.15-.92,3.85-7.77,2.11-15.45,4.71-23.68,4.45a1.15,1.15,0,0,0-.84.5c3,1.35,5.85,3.38,9.42,2.17,5.51-1.87,11-3.85,16.49-5.68a6.74,6.74,0,0,1,2.53.15c-.26.79-.51,1.58-.78,2.36A10,10,0,0,0,175,134c-.13,1.61,0,3.23,0,5.22-4-1.22-4.78,1.73-6,4.1-1.6,3.18-2.91,6.54-4.73,9.59a92.91,92.91,0,0,1-5.75,7.78l-1.13,1.49c8,4.7,15.73,9.3,23.5,13.91a25.19,25.19,0,0,0,17,3.13c-2,3.4-5.25,4.12-8.31,4-4.84-.25-9.66-1.21-14.49-1.85-1.13-.15-2.27-.23-3.81-.37v3.67c-.08,2.84-.66,3.47-3.48,3.35-4.77-.2-9.54-.53-14.51-.83v2c.14,4.27-1.24,5.69-5.54,5.31-5.64-.5-11.29-1-16.88-1.79-8.15-1.19-16.19-3-23.68-6.51-3.07-1.45-5.89-3.41-8.84-5.11-.65-.37-1.35-.64-2.46-1.15,1.17,4.24,4.48,5.7,7.57,7.7a7.33,7.33,0,0,1-7.07,1.13A46.6,46.6,0,0,1,82.67,181c-1.79-1.38-4.27-1.86-6.45-2.74ZM126,140.36l2.23,1.22V125.32a3.26,3.26,0,0,0-1.67,1.52c-1.87,3.62-4,7.21-1.84,11.48-1.06-1.12-2-.87-2.34.5a8.67,8.67,0,0,0-.27,3.4c.12.84.63,2.09,1.26,2.3a15.34,15.34,0,0,0,4,.31,5.45,5.45,0,0,0-.06-1.71A24.89,24.89,0,0,0,126,140.36ZM71.16,63.27c-2.66,3.09-4.28,6.41-2.92,10.52L62.14,77c-.52-.63-.88-1.51-1.41-1.63-1.26-.27-2.85-.64-3.83-.1a3.76,3.76,0,0,0-1.45,3.23,10.54,10.54,0,0,0,2.29,4.3,2.82,2.82,0,0,0,2.45.61c2.16-.58,2.77-2.21,2.12-4.36l7.08-3.73.34.43-3.52,5.86c2.38.65,3.79.14,4.19-2s1.73-2.11,3.38-1.72l-.84,3.43c2.15.5,3.51.07,3.88-2s1.57-2.46,3.37-1.86c-.26,1.16-.51,2.33-.77,3.49,3.29.64,3.72.3,3.77-2.64a19.91,19.91,0,0,1,.08-2.56,1.63,1.63,0,0,1,1.66-1.62,1.59,1.59,0,0,1,1.16.5c1.47,1.22,2.84,2.57,4.24,3.87l-.81.14c-.15,1.36-.29,2.71-.43,4.07a12.62,12.62,0,0,0,3.63.08A15.32,15.32,0,0,0,96.06,81a3.27,3.27,0,0,0,1.54-4.34c-.78-1.44-2.53-1.8-4.26-.84-.46.26-.89.6-1.52,1l-4.1-4.44c.92-2.71,1.74-5.22,2.62-7.71a2.69,2.69,0,0,1,1-1.41c2-1.1,4.12-2.07,6.18-3.09a7.72,7.72,0,0,1,.56.72c1.26,2.06,3.15,2.65,4.82,1.51s1.76-3,.27-5.05a4.57,4.57,0,0,1-.69-1.62c-.58-2.18-2.68-2.91-4.19-1.22-.76.85-.93,2.23-1.57,3.9l-6.79,3.41c-1.94-3.25-5-4.18-8.43-3.51a32.57,32.57,0,0,0-6.9,2.58c-1.06.49-1.77.69-2.63-.23s-1.7-1.61-2.54-2.39l.83-.11c.15-1.36.31-2.71.47-4.07a12.41,12.41,0,0,0-3.65.06,19.74,19.74,0,0,0-3.45,2c-1.69,1-2.43,2.89-1.6,4.31s2.58,1.71,4.3.68A17,17,0,0,0,67.77,60Zm49.06,15.92-.77-.54c-1.23.79-2.8,1.32-3.61,2.41a22.11,22.11,0,0,0-3.23,6.11c-2.25,7-2.29,14.19-1.57,21.42.51,5.19,1.56,10.19,5.83,14.77C118,108.26,119.12,93.73,120.22,79.19Zm18.42,8.24L152.2,66.19c-2.09-.5-4-1.5-5.89-1.31A107.66,107.66,0,0,0,134.92,67c-1,.21-1.51.73-1.22,2,1,4.14,1.74,8.34,2.75,12.48A57.28,57.28,0,0,0,138.64,87.43Zm-7,56.65c2-.51,4-1.13,6-1.84s3.59-4.85,3.13-7c-.79-3.7-1.55-7.41-2.23-11.13-.62-3.38-1.12-6.79-1.67-10.19-3.13.62-5.2,2.91-5.23,5.67-.06,5.65,0,11.3,0,17Zm-16.8-5,.73-.2c.24-3,.62-6,.67-9a6.32,6.32,0,0,0-1-3.87c-2.71-3.33-5.61-6.53-8.64-9.58a15.52,15.52,0,0,0-4.31-2.64c-1.74-.85-2.86-.17-2.61,1.72a13.67,13.67,0,0,0,1.66,5.68c3,4.65,6.43,9.09,9.76,13.56,1.16,1.59,2.54,2.94,3.81,4.37Zm-6.79-98,2.22.2c4.44.44,8.88.91,13.33,1.27.77.07,2.14-.14,2.26-.52.47-1.56,1.67-1.27,2.75-1.58a9,9,0,0,0,2.2-1.4c-.44-.59-.76-1.38-1.34-1.75-4.77-3-9.93-4.3-15.53-3a7.15,7.15,0,0,0-5.87,6.86ZM50.31,124.34c-.31-.67-.54-1.14-.73-1.62-1.67-4-3.5-8-4.91-12.11-.59-1.71-1.24-1.68-2.66-1.36-2.52.55-5.67,6.27-5.69,8.25a3.54,3.54,0,0,0,.43,1.27C38.66,123.16,44.52,125.64,50.31,124.34Zm44.12-6.78c-.32,1.15-.52,1.46-.47,1.72.4,1.87.84,3.73,1.27,5.59.72,3.07,2.29,4.39,5.35,4.91a8.08,8.08,0,0,1,2.41,1.44c-.55.75-1.08,1.52-1.67,2.24a4.74,4.74,0,0,1-1.07.68c.53,1.07.77,2.26,1.49,2.92,3.74,3.42,8.88,3.34,13.13,5.56l.36-.62ZM147,108.29h-.93c-3.07.21-3.48.7-2.81,3.65a69.61,69.61,0,0,1,1.76,7.39c.21,1.85,1.06,2.08,2.42,1.76,1.8-.41,3.57-1,5.33-1.52,3.65-1.11,3.85-1.64,1.92-5a6.61,6.61,0,0,1-.57-1C152.88,110.07,150.55,108.33,147,108.29Zm-95.1.59a7.47,7.47,0,0,0-1.65,1.25c-3,4.19-2.64,7.84.92,11.72a18.72,18.72,0,0,1,1.92,3.26c.47.82,1,1.63,1.44,2.44.89-.67,2.15-1.17,2.54-2.06s-.2-2-.63-2.93c-1.45-3.09-.95-4.62,2.06-6.19.37-.2.73-1.37.57-1.52-2-1.84-4-3.58-6.1-5.34a9.77,9.77,0,0,0-1-.63Zm18.94,47.9c-2.16-2.36-4.55-4.43-6.26-6.95-2.79-4.09-4.59-8.51-2.49-13.67A33.49,33.49,0,0,0,64,129c.18-1.09-.37-2.29-.59-3.44l-.78.06c-.23.37-.66.74-.65,1.09.15,4.43-2.16,8.18-3.3,12.24-1.43,5.11-.78,9.67,3.5,13.21,1.66,1.37,3.82,2.23,5.2,3.8s2.23,1.52,3.5.82Zm52.64-38,1,.31a6.81,6.81,0,0,0,1.06-1.54c.47-1.3.5-2.83,1.22-3.94,2.17-3.41,1.6-7.11,1.51-10.76-.07-2.91-.43-5.8-.53-8.71-.09-2.48.07-5,0-7.44s-.2-4.93-.31-7.39H127q-1.75,19.74-3.48,39.47Zm-35,4.42c-1.12-4.11-2-7.94-3.31-11.59-.29-.79-2.36-1-3.66-1.29a2,2,0,0,0-.9,1.3c.22,2.85,0,6,1.12,8.42.71,1.54,3.58,2.08,5.48,3A6,6,0,0,0,88.46,123.2ZM74.7,107.49c-2,2.12-1.65,4.78-1.81,7.27-.16,2.68,1.28,3.89,4.38,3.6,0-2.58-.08-5.2,0-7.8C77.37,108.77,76.69,107.78,74.7,107.49Zm-7,.17c-.36-.37-.79-1.18-1.27-1.22a20.92,20.92,0,0,0-5,.13,2.34,2.34,0,0,0-.82,2,41.11,41.11,0,0,0,3.75,5.32c.71.88,1.67,1,2-.41.51-1.77.87-3.59,1.38-5.82ZM79.9,43.82a15.89,15.89,0,0,0,.59,2.45c.83,2,2.7,2.37,4.44,2,1.1-.25,2-1.47,3-2.25A28,28,0,0,0,85,42.79a7.55,7.55,0,0,0-2.61-.85C80.71,41.46,79.77,41.88,79.9,43.82Zm51.5,56.25c1.92-2.11,2.87-3.91,2.27-6.42s-.74-4.87-1.19-7.29c-.38-2-.91-4.06-1.37-6.09l-.83.1C130.64,86.76,131,93.15,131.4,100.07ZM75.06,42.5c-4.55.73-7.64,3.31-8,6.56C74.11,49.71,75.38,48.27,75.06,42.5Zm14.56,89.93c.42-3.06-.89-5.81-2.81-5.76a2.45,2.45,0,0,0-1.65,1.51C84.59,130.18,86.43,131.89,89.62,132.43Zm-16.89-7.22c.19-.26,1-1,.91-1.3a36.86,36.86,0,0,0-2.51-3.69c-.66.48-1.72.85-1.87,1.46C68.86,123.19,70.57,125.1,72.73,125.21ZM81.07,128a4.43,4.43,0,0,0-1.69-4.73c-1.19-.66-2-.57-2.25,1C76.82,126.86,77.75,127.75,81.07,128Zm11.17,4.15,3,3.31a9.26,9.26,0,0,0,1.39-2.52c.36-1.74-1.28-1.87-2.35-2.21-.34-.16-1,.6-2,1.37Zm76.19-29.74c-.05,2.48,0,4.15,2.09,4.19.75,0,1.52-1.17,2.28-1.81ZM131.18,69.15l-.9.27c.49,2.29.93,4.58,1.5,6.85.1.37.75.59,1.15.88.23-.35.72-.78.64-1C132.83,73.77,132,71.47,131.18,69.15ZM65.62,124.23l1-.22-.9-3.82c-.42.19-1.08.29-1.21.61a2.46,2.46,0,0,0,.95,3.35Zm-7.56-3.85,1.55,4,.69-.28C60.37,122.66,61.26,120.91,58.06,120.38Z" transform="translate(-1.96 -6.45)"/><path class="cls-1" d="M87.93,65.67c0,3.9-4.18,6.73-7.13,5.26a3.15,3.15,0,0,1-1.2-2c-.06-.26.83-.91,1.38-1.11,1.15-.42,2.37-.61,3.54-1S86.63,66.14,87.93,65.67Z" transform="translate(-1.96 -6.45)"/><path class="cls-1" d="M77.43,68.71a4.82,4.82,0,0,1-5.33,2.93,3.21,3.21,0,0,1-2.33-1.72,4,4,0,0,1,.91-3.06c.32-.38,1.76,0,2.63.31C74.62,67.56,75.89,68.12,77.43,68.71Z" transform="translate(-1.96 -6.45)"/></svg>