<svg id="Capa_1" data-name="Capa 1" xmlns="http://www.w3.org/2000/svg" viewBox="0 0 297 297"><defs><style>.cls-1{fill:#bbb9b3;}</style></defs><path class="cls-1" d="M296,15.57a9.9,9.9,0,0,0-13.4-7.92,117.23,117.23,0,0,1-57.73,6.75,9.92,9.92,0,0,0-8.67,3.29L88.38,163.3a60.24,60.24,0,0,0-61.73,14.6,9.9,9.9,0,0,0,0,14L43.44,208.7,2.89,249.34a9.9,9.9,0,0,0,0,14l23.76,23.81a9.9,9.9,0,0,0,14,0l40.52-40.61,16.76,16.8a9.9,9.9,0,0,0,14,0A60.42,60.42,0,0,0,129,212.53c68.81-32.18,117.16-68.22,143.68-107.16C292.21,76.71,300,46.5,296,15.57ZM33.65,266.14l-9.79-9.81,33.55-33.62,9.79,9.8Zm70.42-24.68-55.6-55.72a40.49,40.49,0,0,1,49.46,6.14A40.78,40.78,0,0,1,104.07,241.46ZM256.34,94.23c-24.19,35.51-69,68.87-133.21,99.2a60.38,60.38,0,0,0-11.2-15.53,59.36,59.36,0,0,0-5.67-5L227.63,34.6a137.36,137.36,0,0,0,49.57-4.34C277.43,52.07,270.44,73.54,256.34,94.23Z"/></svg>