<svg id="Capa_1" data-name="Capa 1" xmlns="http://www.w3.org/2000/svg" viewBox="0 0 297 297"><defs><style>.cls-1{fill:#bbb9b3;}</style></defs><path class="cls-1" d="M294,82.75,214.07,2.86a9.77,9.77,0,0,0-13.81,0L179.75,23.37a9.77,9.77,0,0,0,0,13.81l2,2-75.13,75.12a9.78,9.78,0,0,0,0,13.82l2,2L64.2,174.42a9.77,9.77,0,0,0,0,13.81l2,2L39,217.41l-1.61-1.61a9.75,9.75,0,0,0-13.81,0L3,236.3a9.78,9.78,0,0,0,0,13.82l44,44a9.77,9.77,0,0,0,13.81,0l20.51-20.51a9.77,9.77,0,0,0,0-13.81l-2-2,27.2-27.2,2,2a9.78,9.78,0,0,0,13.82,0l44.36-44.37,2,2a9.77,9.77,0,0,0,13.81,0l75.13-75.12,2,2a9.77,9.77,0,0,0,13.81,0L294,96.56A9.77,9.77,0,0,0,294,82.75ZM54,273.42,23.76,243.21l6.69-6.69,30.21,30.21ZM65.6,244,52.78,231.22,80,204,92.8,216.83Zm49.89-32.14L84.92,181.33l37.46-37.46L153,174.44Zm60.15-42.4-48.33-48.32L195.53,53l48.32,48.33Zm90.91-73.15L200.47,30.27l6.69-6.69,66.08,66.08Z"/></svg>