<svg id="Calque_1" data-name="Calque 1" xmlns="http://www.w3.org/2000/svg" viewBox="0 0 511 511"><defs><style>.cls-1{fill:#20201f;}</style></defs><path class="cls-1" d="M398.46,157.18c18.49-21.51,37.18-39.91,47.44-49.66,11-8.55,19.19-19.76,19.19-33.66,0-16.36-11.72-39.47-67.57-56.66C359.37,5.47,308.93-1,255.5-1c-50.75,0-99.31,5.91-136.74,16.64-42.52,12.18-66.7,29-71.86,50.07a34.44,34.44,0,0,0-1,8.15c0,65.32,14.72,126.62,59.17,174.91a15.07,15.07,0,0,0,5.52,5.77c26.82,27.07,58,44.53,83.86,59,38.19,21.37,61,35.14,61,60.75,0,52.93-55,109.71-55.59,110.26a15,15,0,0,0,17.43,23.86,958.49,958.49,0,0,0,91.42-53.83c35-23.51,96.45-68.13,96.45-110.23,0-28.65-18.3-41.29-33-51.45S346,274.82,345.67,251.37v-1.3C345.94,221.83,380.11,178.51,398.46,157.18ZM76,72.85c1.35-5.52,13.62-17.71,51-28.43,34.82-10,80.45-15.48,128.49-15.48,50.53,0,97.84,6,133.21,16.88,34.07,10.48,46.44,22.51,46.44,28,0,1.57-1.08,3.36-2.17,4.76-7.77,7.06-6,6-9.48,8.21-16-7.34-36.6-13.58-60.31-18.25A15,15,0,0,0,357.4,98q13.25,2.61,24.76,5.83c-31.49,8.78-75.14,15-126.66,15-47.55,0-92.24-5.31-126.82-15C158.93,95.29,198.28,90,240.88,89a15,15,0,0,0-.34-29.93h-.36C178.67,60.5,122.58,70.78,87.52,86.83,83.24,84.05,74.78,77.7,76,72.85ZM375.27,344.33a21.68,21.68,0,0,1-1.2,6.63c-14.56,2.18-29.65,4-45,5.27a15,15,0,0,0,2.57,29.84q9.17-.79,18.19-1.79c-14.05,13.8-33.38,29-57.55,45.28-9.7,6.52-19.43,12.71-28.71,18.39,12-21.74,21.87-47.56,21.87-73.68,0-18.52-6.54-32.91-17-45,11.1-.15,22.07-.51,32.78-1.07a15,15,0,0,0-1.58-29.9c-23.39,1.23-47,1.42-70.16.76-6.6-3.93-13.45-7.77-20.38-11.64-12.16-6.8-24.92-13.95-37.53-22.2,18.48,2,37.24,3.1,39,3.1a15,15,0,0,0,.79-29.92A599.47,599.47,0,0,1,127,228.21a177.45,177.45,0,0,1-26.43-37.75c18,5.21,44.55,10.69,49,10.69a15,15,0,0,0,2.49-29.74c-25.17-4.28-47.32-10.11-66-17.37a248,248,0,0,1-7.73-37.86l.73.4a15,15,0,0,0,1.43.76,191,191,0,0,0,32.92,13.17c38.14,11.74,88.58,18.2,142,18.2,44.39,0,86.42-4.41,121.71-12.74L376,137.41q-16.08,18.68-27.87,35.5a642.55,642.55,0,0,1-78,6.56,15,15,0,0,0,.35,29.94h.37c14.77-.36,35-1.33,57.46-3.76q-8.4,17-11.18,31.36c-15.1,1.27-30.68,2.08-46.5,2.39a15,15,0,0,0,.59,29.93c15.63-.31,31.07-1.08,46.07-2.28,5.33,28,23.83,40.75,37.93,50.48C369.11,327.13,375.27,331.91,375.27,344.33Z"/><path class="cls-1" d="M191.23,445.73a15,15,0,0,0,0-21.17l-29.94-29.94a15,15,0,0,0-21.17,21.17l29.94,29.94A15,15,0,0,0,191.23,445.73Z"/><path class="cls-1" d="M90.82,510H150.7a15,15,0,1,0,0-29.94H90.82a15,15,0,0,0,0,29.94Z"/><path class="cls-1" d="M105.79,435.15a15,15,0,1,1-15-15A15,15,0,0,1,105.79,435.15Z"/><path class="cls-1" d="M345.32,495a15,15,0,1,1-15-15A15,15,0,0,1,345.32,495Z"/></svg>