<svg id="Capa_1" data-name="Capa 1" xmlns="http://www.w3.org/2000/svg" viewBox="0 0 297 297"><defs><style>.cls-1{fill:#20201f;}</style></defs><path class="cls-1" d="M256.48,32.62h-216A40.56,40.56,0,0,0,0,73.14V254.5a9.89,9.89,0,0,0,9.88,9.89H287.12A9.89,9.89,0,0,0,297,254.5V73.14A40.56,40.56,0,0,0,256.48,32.62ZM19.77,133.92h21v110.7h-21Zm40.77,0H106v39a9.89,9.89,0,0,0,9.89,9.89h65.23A9.89,9.89,0,0,0,191,173V134h45.46V244.7H60.54ZM181.12,81.54H115.89A9.89,9.89,0,0,0,106,91.42v22.73H60.54V52.38H236.46v61.77H191V91.42a9.88,9.88,0,0,0-9.88-9.88Zm-55.35,19.77h45.46v61.77H125.77Zm130.46,32.61h21v110.7h-21Zm21-60.78v41h-21V52.38h.25A20.78,20.78,0,0,1,277.23,73.14ZM40.52,52.38h.25v61.77h-21v-41A20.79,20.79,0,0,1,40.52,52.38Z"/><path class="cls-1" d="M148.5,114.15a9.88,9.88,0,0,0-9.88,9.88h0v16.31a9.89,9.89,0,0,0,19.77,0V124A9.91,9.91,0,0,0,148.5,114.15Z"/></svg>