<svg id="Capa_1" data-name="Capa 1" xmlns="http://www.w3.org/2000/svg" viewBox="0 0 297 297"><defs><style>.cls-1{fill:#bbb9b3;}</style></defs><path class="cls-1" d="M49.68,136.75a9.41,9.41,0,0,0-13.23,1.3c-2.46,3-3.81,5-4,5.24a9.4,9.4,0,0,0,15.63,10.44s1-1.49,2.86-3.75A9.4,9.4,0,0,0,49.68,136.75Z"/><path class="cls-1" d="M156.42,134.82a84.53,84.53,0,0,0-7.53-8.76,9.4,9.4,0,1,0-13.33,13.25,63.69,63.69,0,0,1,5.82,6.79,9.4,9.4,0,0,0,15-11.28Z"/><path class="cls-1" d="M72.29,110.48a80.8,80.8,0,0,0-10.35,5.28,9.4,9.4,0,1,0,9.7,16.1,61.75,61.75,0,0,1,7.93-4,9.4,9.4,0,0,0-7.28-17.34Z"/><path class="cls-1" d="M173,161.83A9.4,9.4,0,1,0,157,171.59a109,109,0,0,0,6.2,9.29,9.4,9.4,0,1,0,15.05-11.25C176.56,167.42,174.91,164.94,173,161.83Z"/><path class="cls-1" d="M235.64,205.11a9,9,0,0,0,1.27-.09c1.91-.25,3.88-.55,5.87-.88a9.4,9.4,0,1,0-3.09-18.54c-1.8.3-3.58.56-5.29.8a9.4,9.4,0,0,0,1.24,18.71Z"/><path class="cls-1" d="M234.59,124.24a9.4,9.4,0,0,0,13.29,0l1.08-1.09,1.08,1.09a9.4,9.4,0,1,0,13.3-13.3l-1.08-1.08,1.08-1.08A9.4,9.4,0,1,0,250,95.49L249,96.57l-1.08-1.08a9.4,9.4,0,0,0-13.29,13.29l1.08,1.08-1.08,1.08A9.41,9.41,0,0,0,234.59,124.24Z"/><path class="cls-1" d="M293.68,33.14a9.41,9.41,0,0,0-7.62-2.1l-91.19,15.2-34.12-5.69a9.43,9.43,0,0,0-10,5.07L148.5,50.2l-4.24-8.47a9.37,9.37,0,0,0-6.86-5.07L103.68,31a9.36,9.36,0,0,0-3.08,0h0L7.85,46.49A9.4,9.4,0,0,0,0,55.76V256.69a9.4,9.4,0,0,0,9.4,9.4,8.89,8.89,0,0,0,1.54-.13l38.19-6.36a9.42,9.42,0,0,0,7.37-6.3l1-3,.55,1.1a9.41,9.41,0,0,0,10,5.07l34.12-5.69L193.32,266a9,9,0,0,0,1.55.13,9.9,9.9,0,0,0,1.54-.13h0L247,257.53a9.41,9.41,0,0,0,6.87-5.07l2.83-5.67,1.1,2.21a9.41,9.41,0,0,0,10,5.07l21.4-3.57a9.39,9.39,0,0,0,7.85-9.27V40.31A9.38,9.38,0,0,0,293.68,33.14ZM64.17,221.57a9.4,9.4,0,0,0-17.32,1.24L40.46,242,18.8,245.59V63.73L92.73,51.41V233.27l-21,3.5Zm47.36-96c.6.17,1.21.33,1.81.52a9.4,9.4,0,0,0,5.52-18,68.8,68.8,0,0,0-7.33-1.82V51.4l18.06,3,10.5,21a9.4,9.4,0,0,0,16.82,0l7.59-15.19,21,3.5V245.6l-73.94-12.33V125.58ZM278.2,233.27l-6.7,1.12-6.4-12.81a9.4,9.4,0,0,0-16.82,0l-9.1,18.2-34.91,5.81V205.37l.43,0a9.4,9.4,0,0,0,1.5-18.68c-.65-.1-1.3-.22-1.93-.35V63.73L278.2,51.41V233.27Z"/></svg>