<svg id="Capa_1" data-name="Capa 1" xmlns="http://www.w3.org/2000/svg" viewBox="0 0 512 512"><defs><style>.cls-1{fill:#20201f;}</style></defs><path class="cls-1" d="M278.5,512h-45a30,30,0,0,1-7.5-59V440.5a6,6,0,0,0-4.92-5.86A180.34,180.34,0,0,1,154.42,407a6.08,6.08,0,0,0-7.67.64l-8.88,8.88a30,30,0,0,1-47,36.38l-31.8-31.79A30,30,0,0,1,95.53,374l8.8-8.79a6.08,6.08,0,0,0,.64-7.67,180.35,180.35,0,0,1-27.61-66.66A6,6,0,0,0,71.5,286H59.06A30,30,0,0,1,0,278V233.5a30,30,0,0,1,30-30l1,0c13.27.44,24.48,9.95,27.9,22.48H71.5a6,6,0,0,0,5.86-4.92A180.32,180.32,0,0,1,105,154.42a6.08,6.08,0,0,0-.64-7.67L95.53,138A30,30,0,0,1,59.07,90.89L90.89,59.07A30,30,0,0,1,138,95.53l8.79,8.8a6.08,6.08,0,0,0,7.67.64,180.35,180.35,0,0,1,66.66-27.61A6,6,0,0,0,226,71.5V59.05a30,30,0,0,1,7.5-59h45a30,30,0,0,1,7.5,59V71.5a6,6,0,0,0,4.92,5.86A180.34,180.34,0,0,1,357.58,105a6.08,6.08,0,0,0,7.67-.64l8.8-8.81A30,30,0,0,1,421.11,59.1l31.82,31.82A30,30,0,0,1,416.47,138l-8.79,8.79a6.05,6.05,0,0,0-.65,7.67,180.35,180.35,0,0,1,27.61,66.66A6,6,0,0,0,440.5,226h12.56a30.27,30.27,0,0,1,26.24-22.38h0a30,30,0,0,1,32.58,27.18q.12,1.35.12,2.7v45a29.94,29.94,0,0,1-58.94,7.5H440.5a6,6,0,0,0-5.86,4.92A180.34,180.34,0,0,1,407,357.58a6.05,6.05,0,0,0,.65,7.67l8.79,8.79a30,30,0,0,1,36.46,47.07l-31.82,31.82a29.94,29.94,0,0,1-47-36.38l-8.88-8.88a6.05,6.05,0,0,0-7.66-.64,180.4,180.4,0,0,1-66.67,27.61A6,6,0,0,0,286,440.5V453a30,30,0,0,1-7.5,59ZM151,386a26.13,26.13,0,0,1,14.63,4.47A160.21,160.21,0,0,0,224.9,415,26.06,26.06,0,0,1,246,440.5v19A12.52,12.52,0,0,1,233.5,472a10,10,0,0,0,0,20h45a10,10,0,0,0,0-20A12.52,12.52,0,0,1,266,459.5v-19A26.06,26.06,0,0,1,287.1,415a160.3,160.3,0,0,0,59.31-24.57,26.1,26.1,0,0,1,33,3.09l13.76,13.76a12.08,12.08,0,0,1,0,17,10.29,10.29,0,0,0-1,13.77,10,10,0,0,0,14.08,1.33c.24-.2.48-.42.7-.64L438.79,407a10,10,0,0,0-13.9-14.38l-.24.24-.32.32a12.08,12.08,0,0,1-17,0l-13.76-13.76a26.1,26.1,0,0,1-3.09-33A160.32,160.32,0,0,0,415,287.1,26,26,0,0,1,440.5,266H460a12.07,12.07,0,0,1,12,12.05,10.3,10.3,0,0,0,9.06,10.41,10,10,0,0,0,7.69-2.58A9.88,9.88,0,0,0,492,278.5v-45a10,10,0,0,0-10-10,8.11,8.11,0,0,0-1,0A10.3,10.3,0,0,0,472,234a12.06,12.06,0,0,1-12,12H440.5A26.06,26.06,0,0,1,415,224.9a160.3,160.3,0,0,0-24.57-59.31,26.1,26.1,0,0,1,3.09-33L407,119.17a12.52,12.52,0,0,1,17.68,0A10,10,0,0,0,439,105.24l-.24-.24L407,73.21A10,10,0,1,0,392.61,87.1c.08.09.17.17.25.25a12.52,12.52,0,0,1,0,17.68l-13.44,13.44a26.1,26.1,0,0,1-33,3.09A160.26,160.26,0,0,0,287.1,97,26.06,26.06,0,0,1,266,71.5v-19A12.52,12.52,0,0,1,278.5,40a10,10,0,0,0,0-20h-45a10,10,0,0,0,0,20A12.52,12.52,0,0,1,246,52.5v19A26,26,0,0,1,224.9,97a160.3,160.3,0,0,0-59.31,24.57,26.1,26.1,0,0,1-33-3.09L119.17,105a12.49,12.49,0,0,1,0-17.66l0,0A10,10,0,0,0,105,73.21L73.21,105A10,10,0,1,0,87.1,119.39c.09-.08.17-.17.25-.25a12.52,12.52,0,0,1,17.68,0l13.44,13.44a26.1,26.1,0,0,1,3.09,33A160.26,160.26,0,0,0,97,224.9,26,26,0,0,1,71.5,246H52a12,12,0,0,1-12-12c0-5.62-4.33-10.34-9.65-10.51A10,10,0,0,0,20,233.13c0,.13,0,.25,0,.37V278a10.33,10.33,0,0,0,9.63,10.47A10,10,0,0,0,40,278.85c0-.12,0-.23,0-.35A12.52,12.52,0,0,1,52.5,266h19A26.06,26.06,0,0,1,97,287.1a160.47,160.47,0,0,0,24.57,59.31,26.1,26.1,0,0,1-3.09,33l-13.76,13.76a12.08,12.08,0,0,1-17,0l-.32-.32A10,10,0,1,0,73.21,407h0L105,438.79a10,10,0,0,0,14.14,0,8.42,8.42,0,0,0,.64-.7,10.28,10.28,0,0,0-1-13.76,12.07,12.07,0,0,1,0-17l13.75-13.76A25.89,25.89,0,0,1,151,386Z"/><path class="cls-1" d="M217.37,213.88a42,42,0,1,1,42-42,42,42,0,0,1-42,42Zm0-64a22,22,0,1,0,22,22A22,22,0,0,0,217.37,149.88Z"/><path class="cls-1" d="M189,355.8a36.33,36.33,0,1,1,36.33-36.33A36.34,36.34,0,0,1,189,355.8Zm0-52.66a16.33,16.33,0,1,0,16.33,16.33h0A16.34,16.34,0,0,0,189,303.14Z"/><path class="cls-1" d="M325.83,345.86a61.73,61.73,0,0,1-61.34-54.54A10,10,0,1,1,284.36,289a41.76,41.76,0,1,0,46.12-46.41,10,10,0,1,1,2.19-19.88,61.76,61.76,0,0,1-6.84,123.14Z"/><path class="cls-1" d="M313,181.88a10,10,0,1,1,7.07-2.93A10,10,0,0,1,313,181.88Z"/><path class="cls-1" d="M256,385a10,10,0,1,1,7.07-2.93A10,10,0,0,1,256,385Z"/><path class="cls-1" d="M143.67,266.13a10,10,0,1,1,7.07-2.93A10,10,0,0,1,143.67,266.13Z"/><path class="cls-1" d="M289.12,257.62a10,10,0,1,1,7.07-2.93A10,10,0,0,1,289.12,257.62Z"/></svg>